<svg xmlns="http://www.w3.org/2000/svg" viewBox="0 0 33 33"><defs><style>.cls-1{fill:none;stroke:#000;stroke-linecap:round;stroke-linejoin:round;stroke-width:3px;}</style></defs><g id="Layer_2" data-name="Layer 2"><g id="Layer_1-2" data-name="Layer 1"><g id="Icon_feather-instagram" data-name="Icon feather-instagram"><path id="Path_64" data-name="Path 64" class="cls-1" d="M9,1.5H24A7.5,7.5,0,0,1,31.5,9V24A7.5,7.5,0,0,1,24,31.5H9A7.5,7.5,0,0,1,1.5,24V9A7.5,7.5,0,0,1,9,1.5Z"/><path id="Path_65" data-name="Path 65" class="cls-1" d="M22.5,15.56a6,6,0,1,1-6.82-5.06,5.77,5.77,0,0,1,1.76,0A6,6,0,0,1,22.5,15.56Z"/><path id="Path_66" data-name="Path 66" class="cls-1" d="M24.75,8.25h0"/></g></g></g></svg>