<svg xmlns="http://www.w3.org/2000/svg" viewBox="0 0 36 29.24"><g id="Layer_2" data-name="Layer 2"><g id="Layer_1-2" data-name="Layer 1"><path id="Icon_awesome-twitter" data-name="Icon awesome-twitter" d="M32.3,7.29c0,.32,0,.64,0,1,0,9.75-7.42,21-21,21A20.87,20.87,0,0,1,0,25.93,17.68,17.68,0,0,0,1.78,26a14.76,14.76,0,0,0,9.16-3.15A7.41,7.41,0,0,1,4,17.75a9.3,9.3,0,0,0,1.39.11,7.56,7.56,0,0,0,2-.25,7.39,7.39,0,0,1-5.92-7.24v-.09a7.52,7.52,0,0,0,3.34.94A7.39,7.39,0,0,1,2.51,1.35,21,21,0,0,0,17.73,9.07a8.75,8.75,0,0,1-.19-1.69,7.39,7.39,0,0,1,12.77-5A14.53,14.53,0,0,0,35,.55a7.34,7.34,0,0,1-3.24,4.06A14.54,14.54,0,0,0,36,3.47,16,16,0,0,1,32.3,7.29Z"/></g></g></svg>